<?xml version="1.0" encoding="UTF-8" standalone="no"?>
<!-- Created with Inkscape (http://www.inkscape.org/) -->

<svg
   width="210mm"
   height="297mm"
   viewBox="0 0 210 297"
   version="1.1"
   id="svg5"
   xml:space="preserve"
   inkscape:version="1.2.1 (9c6d41e410, 2022-07-14)"
   sodipodi:docname="cmuportugal.svg"
   xmlns:inkscape="http://www.inkscape.org/namespaces/inkscape"
   xmlns:sodipodi="http://sodipodi.sourceforge.net/DTD/sodipodi-0.dtd"
   xmlns="http://www.w3.org/2000/svg"
   xmlns:svg="http://www.w3.org/2000/svg"><sodipodi:namedview
     id="namedview7"
     pagecolor="#ffffff"
     bordercolor="#000000"
     borderopacity="0.25"
     inkscape:showpageshadow="2"
     inkscape:pageopacity="0.0"
     inkscape:pagecheckerboard="0"
     inkscape:deskcolor="#d1d1d1"
     inkscape:document-units="mm"
     showgrid="false"
     inkscape:zoom="1.1893044"
     inkscape:cx="572.60362"
     inkscape:cy="170.68801"
     inkscape:window-width="2560"
     inkscape:window-height="1494"
     inkscape:window-x="-11"
     inkscape:window-y="-11"
     inkscape:window-maximized="1"
     inkscape:current-layer="g75"><inkscape:page
       x="0"
       y="0"
       width="210"
       height="297"
       id="page179" /><inkscape:page
       x="220"
       y="0"
       width="199.99995"
       height="60.000095"
       id="page181" /><inkscape:grid
       type="xygrid"
       id="grid341" /></sodipodi:namedview><defs
     id="defs2"><clipPath
       clipPathUnits="userSpaceOnUse"
       id="clipPath79"><path
         d="M 0,170.079 H 566.929 V 0 H 0 Z"
         id="path77" /></clipPath></defs><g
     inkscape:label="Layer 1"
     inkscape:groupmode="layer"
     id="layer1" /><g
     id="g73"
     transform="matrix(0.35277776,0,0,-0.35277778,4.2050923,67.341569)"
     style="fill:#000000"><g
       id="g75"
       clip-path="url(#clipPath79)"
       style="fill:#000000"><g
         id="g81"
         transform="translate(313.30389,102.24695)"
         style="fill:#ebe9e4;fill-opacity:1"><path
           d="m 0,0 13.78,-13.719 c -1.169,-1.609 -1.867,-3.58 -1.867,-5.716 0,-4.859 3.577,-8.888 8.234,-9.62 l 0.075,-7.594 c -1.013,-0.253 -1.976,-0.752 -2.766,-1.543 -2.32,-2.319 -2.32,-6.097 0,-8.416 0.77,-0.77 1.706,-1.26 2.69,-1.518 l 0.075,-7.648 H 0 Z M -30.397,32.597 H -2.958 V 7.119 l -7.395,7.361 c 0.871,1.249 1.387,2.76 1.387,4.397 0,4.259 -3.452,7.712 -7.712,7.712 -4.259,0 -7.712,-3.453 -7.712,-7.712 0,-4.259 3.453,-7.712 7.712,-7.712 1.552,0 2.991,0.467 4.201,1.256 l 7.298,-7.265 h -25.218 z m 88.37,-50.519 -7.48,-0.072 c -0.243,1.045 -0.754,2.04 -1.566,2.853 -2.32,2.321 -6.096,2.322 -8.415,0 -0.793,-0.793 -1.294,-1.761 -1.545,-2.778 l -7.671,-0.074 c -0.701,4.695 -4.747,8.309 -9.633,8.309 -2.175,0 -4.179,-0.724 -5.802,-1.933 L 1.983,2.2 h 55.99 z m -15.865,1.183 c 0.72,0.719 1.665,1.079 2.611,1.079 0.945,0 1.89,-0.36 2.61,-1.079 1.44,-1.439 1.44,-3.782 0,-5.221 -1.438,-1.436 -3.78,-1.439 -5.221,0 -1.438,1.439 -1.438,3.782 0,5.221 m -12.68,-8.57 c 0.95,1.254 1.602,2.739 1.856,4.359 l 7.711,0.074 c 0.26,-0.981 0.749,-1.914 1.517,-2.681 1.159,-1.161 2.683,-1.74 4.207,-1.74 1.523,0 3.048,0.579 4.208,1.74 0.748,0.747 1.227,1.653 1.494,2.606 l 7.552,0.072 v -32.852 z m -6.324,-22.84 c 1.013,0.252 1.977,0.751 2.767,1.541 2.32,2.319 2.32,6.097 0,8.416 -0.77,0.772 -1.706,1.262 -2.691,1.521 l -0.075,7.605 c 1.549,0.232 2.979,0.823 4.202,1.694 L 55.833,-55.774 H 23.18 Z m -1.441,9.439 c 0.945,0 1.891,-0.36 2.61,-1.079 1.44,-1.439 1.44,-3.782 0,-5.221 -1.437,-1.438 -3.78,-1.438 -5.22,0 -1.439,1.439 -1.439,3.782 0,5.221 0.719,0.719 1.666,1.079 2.61,1.079 m 0,26.069 c 3.746,0 6.793,-3.048 6.793,-6.794 0,-3.745 -3.047,-6.793 -6.793,-6.793 -3.746,0 -6.792,3.048 -6.792,6.793 0,3.746 3.046,6.794 6.792,6.794 M 0,5.156 V 35.554 H -33.355 V 2.2 H -2.958 V -58.731 H 60.931 V 5.156 Z"
           style="fill:#ebe9e4;fill-opacity:1;fill-rule:nonzero;stroke:none"
           id="path83" /></g></g></g></svg>
